<svg width="64" height="64" viewBox="0 0 432 456" xmlns="http://www.w3.org/2000/svg">
  <defs>
    <clipPath id="clip0">
      <path d="M72,0 L360,0 Q432,0,432,72 L432,384 Q432,456,360,456 L72,456 Q0,456,0,384 L0,72 Q0,0,72,0 Z" />
    </clipPath>
  </defs>
  <g clip-path="url(#clip0)">
    <path fill="#FEC928" d="M72,0 L360,0 Q432,0,432,72 L432,384 Q432,456,360,456 L72,456 Q0,456,0,384 L0,72 Q0,0,72,0 Z" />
    <path fill="#202020" d="M99,71 H177 V85 H99 Z M190,71 H268 V85 H190 Z M44,71 H89 V85 H44 Z M86,116 H137 V130 H86 Z M149,116 H226 V130 H149 Z M44,116 H78 V130 H44 Z M44,160 H99 V174 H44 Z M116,160 H166 V174 H116 Z M99,205 H166 V219 H99 Z M44,205 H86 V219 H44 Z M100,249 H156 V264 H100 Z M44,249 H94 V264 H44 Z M86,294 H163 V308 H86 Z M44,294 H74 V308 H44 Z M44,338 H100 V353 H44 Z" />
    <path fill="#F68EA3" d="M336,136 L350,151 L289,213 L275,199 Z" />
    <path fill="#FDE3C1" d="M338,186 L376,196 L376,285 L300,300 L255,290 L240,265 L300,225 Z" />
    <path fill="#202020" d="M340,107 Q372,107,376,135 Q374,150,357,168 L342,153 Q358,138,358,128 Q356,118,343,118 Z" />
  </g>
</svg>
